<svg id="visual" viewBox="0 0 900 600" width="900" height="600" xmlns="http://www.w3.org/2000/svg" xmlns:xlink="http://www.w3.org/1999/xlink" version="1.1"><rect x="0" y="0" width="900" height="600" fill="#001220"></rect><path d="M0 348L11.5 356.2C23 364.3 46 380.7 69 380.2C92 379.7 115 362.3 138.2 354.2C161.3 346 184.7 347 207.8 356.8C231 366.7 254 385.3 277 391C300 396.7 323 389.3 346 381.8C369 374.3 392 366.7 415.2 362.8C438.3 359 461.7 359 484.8 357C508 355 531 351 554 359.2C577 367.3 600 387.7 623 387.8C646 388 669 368 692.2 365.7C715.3 363.3 738.7 378.7 761.8 386.7C785 394.7 808 395.3 831 387C854 378.7 877 361.3 888.5 352.7L900 344L900 601L888.5 601C877 601 854 601 831 601C808 601 785 601 761.8 601C738.7 601 715.3 601 692.2 601C669 601 646 601 623 601C600 601 577 601 554 601C531 601 508 601 484.8 601C461.7 601 438.3 601 415.2 601C392 601 369 601 346 601C323 601 300 601 277 601C254 601 231 601 207.8 601C184.7 601 161.3 601 138.2 601C115 601 92 601 69 601C46 601 23 601 11.5 601L0 601Z" fill="#fa7268"></path><path d="M0 395L11.5 402.8C23 410.7 46 426.3 69 434.7C92 443 115 444 138.2 444.7C161.3 445.3 184.7 445.7 207.8 436C231 426.3 254 406.7 277 396.2C300 385.7 323 384.3 346 388.7C369 393 392 403 415.2 403.7C438.3 404.3 461.7 395.7 484.8 389.3C508 383 531 379 554 386.8C577 394.7 600 414.3 623 418.8C646 423.3 669 412.7 692.2 407.7C715.3 402.7 738.7 403.3 761.8 405.8C785 408.3 808 412.7 831 414C854 415.3 877 413.7 888.5 412.8L900 412L900 601L888.5 601C877 601 854 601 831 601C808 601 785 601 761.8 601C738.7 601 715.3 601 692.2 601C669 601 646 601 623 601C600 601 577 601 554 601C531 601 508 601 484.8 601C461.7 601 438.3 601 415.2 601C392 601 369 601 346 601C323 601 300 601 277 601C254 601 231 601 207.8 601C184.7 601 161.3 601 138.2 601C115 601 92 601 69 601C46 601 23 601 11.5 601L0 601Z" fill="#ef5f67"></path><path d="M0 453L11.5 458.3C23 463.7 46 474.3 69 476.3C92 478.3 115 471.7 138.2 467.7C161.3 463.7 184.7 462.3 207.8 462.3C231 462.3 254 463.7 277 461C300 458.3 323 451.7 346 445.3C369 439 392 433 415.2 436.7C438.3 440.3 461.7 453.7 484.8 457.2C508 460.7 531 454.3 554 447.5C577 440.7 600 433.3 623 439.2C646 445 669 464 692.2 471C715.3 478 738.7 473 761.8 473.3C785 473.7 808 479.3 831 483.8C854 488.3 877 491.7 888.5 493.3L900 495L900 601L888.5 601C877 601 854 601 831 601C808 601 785 601 761.8 601C738.7 601 715.3 601 692.2 601C669 601 646 601 623 601C600 601 577 601 554 601C531 601 508 601 484.8 601C461.7 601 438.3 601 415.2 601C392 601 369 601 346 601C323 601 300 601 277 601C254 601 231 601 207.8 601C184.7 601 161.3 601 138.2 601C115 601 92 601 69 601C46 601 23 601 11.5 601L0 601Z" fill="#e34c67"></path><path d="M0 482L11.5 481.2C23 480.3 46 478.7 69 483.2C92 487.7 115 498.3 138.2 506.7C161.3 515 184.7 521 207.8 523.3C231 525.7 254 524.3 277 516.7C300 509 323 495 346 492.8C369 490.7 392 500.3 415.2 509C438.3 517.7 461.7 525.3 484.8 518.8C508 512.3 531 491.7 554 482C577 472.3 600 473.7 623 478.8C646 484 669 493 692.2 502.5C715.3 512 738.7 522 761.8 522.5C785 523 808 514 831 508.7C854 503.3 877 501.7 888.5 500.8L900 500L900 601L888.5 601C877 601 854 601 831 601C808 601 785 601 761.8 601C738.7 601 715.3 601 692.2 601C669 601 646 601 623 601C600 601 577 601 554 601C531 601 508 601 484.8 601C461.7 601 438.3 601 415.2 601C392 601 369 601 346 601C323 601 300 601 277 601C254 601 231 601 207.8 601C184.7 601 161.3 601 138.2 601C115 601 92 601 69 601C46 601 23 601 11.5 601L0 601Z" fill="#d53867"></path><path d="M0 552L11.5 552.5C23 553 46 554 69 556C92 558 115 561 138.2 565C161.3 569 184.7 574 207.8 574.7C231 575.3 254 571.7 277 568.3C300 565 323 562 346 555.3C369 548.7 392 538.3 415.2 533.5C438.3 528.7 461.7 529.3 484.8 533.2C508 537 531 544 554 551C577 558 600 565 623 560.7C646 556.3 669 540.7 692.2 534.3C715.3 528 738.7 531 761.8 535.2C785 539.3 808 544.7 831 545.5C854 546.3 877 542.7 888.5 540.8L900 539L900 601L888.5 601C877 601 854 601 831 601C808 601 785 601 761.8 601C738.7 601 715.3 601 692.2 601C669 601 646 601 623 601C600 601 577 601 554 601C531 601 508 601 484.8 601C461.7 601 438.3 601 415.2 601C392 601 369 601 346 601C323 601 300 601 277 601C254 601 231 601 207.8 601C184.7 601 161.3 601 138.2 601C115 601 92 601 69 601C46 601 23 601 11.5 601L0 601Z" fill="#c62368"></path></svg>